<svg width="25" height="55.65" viewBox="0 0 18 40" fill="none" xmlns="http://www.w3.org/2000/svg">
<path d="M17.6393 15.925C15.5326 6.625 10.5526 3.56833 10.0176 2.4C9.55094 1.74333 9.13428 0.81 8.79261 0C8.73261 0.825 8.70094 1.14167 7.92094 1.97333C6.71594 2.91667 0.524275 8.11 0.0209416 18.6733C-0.449058 28.5267 7.13761 34.3983 8.16761 35.1467L8.28428 35.23C8.49876 36.8163 8.68213 38.4066 8.83428 40H9.63594C9.82594 38.28 10.1093 36.5733 10.4859 34.8833C11.1809 34.39 11.4926 34.1117 11.9026 33.7283C13.8442 31.9322 15.3873 29.7485 16.432 27.3186C17.4767 24.8886 17.9999 22.2665 17.9676 19.6217C17.9843 18.265 17.7959 16.8517 17.6393 15.925V15.925ZM8.74594 29.5833C8.74594 29.5833 8.74594 15.765 9.20428 15.7667C9.55928 15.7667 10.0209 33.5917 10.0209 33.5917C9.38594 33.5167 8.74594 30.6583 8.74594 29.5833Z" fill="#47A248"/>
</svg>
