<svg width="41" height="40" viewBox="0 0 41 40" fill="none" xmlns="http://www.w3.org/2000/svg">
<path d="M19.6731 0C19.3792 0 19.1567 0.00216667 19.0757 0.0111667C18.9897 0.02 18.7159 0.0461667 18.4697 0.0658333C12.7884 0.578 7.4669 3.643 4.09639 8.35383C2.21956 10.9733 1.01923 13.9443 0.565895 17.0917C0.405561 18.19 0.385895 18.5145 0.385895 20.004C0.385895 21.4935 0.405895 21.818 0.565895 22.9167C1.65256 30.4267 6.99773 36.7365 14.2471 39.0742C15.5452 39.4927 16.9137 39.778 18.4699 39.95C19.0759 40.0167 21.6956 40.0167 22.3016 39.95C24.9877 39.6528 27.2636 38.9883 29.5077 37.8428C29.8519 37.6668 29.9184 37.62 29.8716 37.5807C29.8402 37.5575 28.3737 35.591 26.6144 33.214L23.4161 28.894L19.4082 22.9635C17.2031 19.7028 15.3887 17.0368 15.3731 17.0368C15.3574 17.0325 15.3419 19.668 15.3339 22.8852C15.3227 28.5188 15.3184 28.7455 15.2479 28.8785C15.1462 29.0702 15.0679 29.1482 14.9039 29.2342C14.7789 29.2965 14.6692 29.3083 14.0789 29.3083H13.4022L13.2226 29.195C13.1111 29.1252 13.0206 29.0266 12.9606 28.9097L12.8784 28.7337L12.8872 20.8953L12.8984 13.053L13.0194 12.9005C13.0821 12.8183 13.2151 12.713 13.3087 12.6622C13.4691 12.5838 13.5317 12.576 14.2081 12.576C15.0059 12.576 15.1387 12.6072 15.3459 12.8338C15.4047 12.8967 17.5747 16.165 20.1709 20.1018C22.7995 24.0865 25.4298 28.0702 28.0616 32.0528L31.2286 36.8498L31.3886 36.7443C32.8082 35.8217 34.3094 34.508 35.4981 33.1398C38.0279 30.235 39.6586 26.6932 40.2059 22.9165C40.3661 21.818 40.3856 21.4932 40.3856 20.004C40.3856 18.5145 40.3656 18.19 40.2059 17.0913C39.1189 9.58133 33.7739 3.2715 26.5247 0.933833C25.2461 0.519333 23.8854 0.233833 22.3606 0.0618333C22.0789 0.0325 20.5547 0.000833333 19.6734 0.000166667L19.6731 0ZM26.4539 12.0283C27.0327 12.0283 27.1342 12.0372 27.2634 12.1067C27.4512 12.2003 27.6034 12.3803 27.6584 12.5678C27.6894 12.6695 27.6974 14.8433 27.6894 19.7418L27.6782 26.771L26.4389 24.871L25.1954 22.971V17.861C25.1954 14.5577 25.2109 12.7005 25.2344 12.6107C25.2969 12.3918 25.4337 12.2197 25.6216 12.1182C25.7817 12.0358 25.8404 12.0282 26.4544 12.0282L26.4539 12.0283Z" fill="white"/>
</svg>
