<svg width="36" height="40" viewBox="0 0 36 40" fill="none" xmlns="http://www.w3.org/2000/svg">
<path d="M17.7331 40C17.1982 40 16.6648 39.86 16.1965 39.5883L11.3032 36.6934C10.5732 36.285 10.9299 36.14 11.1699 36.055C12.1449 35.7167 12.3415 35.6384 13.3832 35.0484C13.4915 34.9867 13.6349 35.0101 13.7465 35.0767L17.5065 37.3084C17.6431 37.3834 17.8348 37.3834 17.9598 37.3084L32.618 28.8484C32.7547 28.7701 32.8413 28.6135 32.8413 28.4518V11.5353C32.8413 11.3703 32.753 11.2153 32.613 11.132L17.9615 2.67872C17.8265 2.60039 17.6465 2.60039 17.5098 2.67872L2.86164 11.1336C2.71997 11.2153 2.62997 11.3753 2.62997 11.5353V28.4518C2.62997 28.6135 2.71997 28.7668 2.86164 28.8434L6.8766 31.1634C9.05491 32.2534 10.3899 30.9701 10.3899 29.6801V12.9786C10.3899 12.742 10.5799 12.557 10.8166 12.557H12.6749C12.9065 12.557 13.0999 12.7436 13.0999 12.9786V29.6801C13.0999 32.5884 11.5165 34.2551 8.75991 34.2551C7.91325 34.2551 7.24492 34.2551 5.38328 33.3367L1.53665 31.1251C0.58666 30.5768 0 29.5501 0 28.4518V11.5353C0 10.437 0.588327 9.41032 1.53665 8.86366L16.1948 0.393746C17.1232 -0.131249 18.3548 -0.131249 19.2748 0.393746L33.9313 8.86366C34.8813 9.41198 35.4713 10.437 35.4713 11.5353V28.4518C35.4713 29.5501 34.8813 30.5734 33.9313 31.1251L19.2748 39.5883C18.8081 39.86 18.2765 40 17.7331 40ZM29.568 23.3218C29.568 20.1552 27.428 19.3119 22.9231 18.7169C18.3715 18.1152 17.9081 17.8036 17.9081 16.7386C17.9081 15.8586 18.2998 14.6836 21.6714 14.6836C24.6831 14.6836 25.7931 15.3319 26.2497 17.3619C26.2897 17.5536 26.4647 17.6936 26.6614 17.6936H28.563C28.6814 17.6936 28.793 17.6419 28.873 17.5586C28.953 17.4686 28.9964 17.3536 28.9847 17.2319C28.6897 13.7353 26.3664 12.1053 21.6714 12.1053C17.4915 12.1053 14.9982 13.8686 14.9982 16.8269C14.9982 20.0352 17.4782 20.9219 21.4898 21.3185C26.2897 21.7885 26.6614 22.4902 26.6614 23.4335C26.6614 25.0718 25.3464 25.7701 22.2581 25.7701C18.3798 25.7701 17.5265 24.7968 17.2398 22.8668C17.2065 22.6602 17.0298 22.5085 16.8182 22.5085H14.9232C14.6882 22.5085 14.4998 22.6952 14.4998 22.9302C14.4998 25.4002 15.8432 28.3435 22.2581 28.3435C26.9047 28.3451 29.568 26.5168 29.568 23.3218Z" fill="#339933"/>
</svg>
