<svg width="41" height="40" viewBox="0 0 41 40" fill="none" xmlns="http://www.w3.org/2000/svg">
<path d="M23.85 0.3L25.35 0.633333L26.5667 1.06667L27.55 1.56667L28.3 2.1L28.8667 2.66667L29.2833 3.23333L29.55 3.78333L29.7167 4.28333L29.7833 4.71667L29.8167 5.05L29.8 5.26667V14.1667L29.7167 15.2167L29.5 16.1333L29.15 16.9L28.7167 17.5333L28.2167 18.05L27.6667 18.4667L27.0833 18.7833L26.5 19.0167L25.95 19.1833L25.45 19.3L25.0167 19.3667L24.6667 19.4H14.7167L13.5667 19.4833L12.5833 19.7167L11.75 20.0833L11.0667 20.5333L10.5167 21.0667L10.0667 21.65L9.73333 22.25L9.48333 22.8667L9.31667 23.45L9.2 23.9833L9.13333 24.4333L9.1 24.7833V29.8833H5.38333L5.03333 29.8333L4.56667 29.7167L4.03333 29.5167L3.45 29.2167L2.85 28.7833L2.25 28.1833L1.66667 27.4167L1.13333 26.4333L0.666667 25.2167L0.316667 23.75L0.0833333 22L0 19.95L0.1 17.9167L0.366667 16.1833L0.766667 14.7333L1.3 13.55L1.9 12.6L2.56667 11.8667L3.26667 11.3167L3.96667 10.9167L4.63333 10.65L5.23333 10.4833L5.76667 10.4L6.16667 10.3833H6.43333L6.53333 10.4H20.1333V9.01667H10.4L10.3833 4.43333L10.35 3.81667L10.4333 3.25L10.6167 2.73333L10.9 2.26667L11.3167 1.83333L11.8333 1.45L12.4667 1.11667L13.2 0.816667L14.05 0.566667L15.0167 0.366667L16.0833 0.2L17.2667 0.1L18.55 0.0333333L19.95 0L22.0667 0.0833333L23.85 0.3ZM13.35 3.6L12.9667 4.15L12.8333 4.83333L12.9667 5.51667L13.35 6.08333L13.9 6.45L14.5833 6.6L15.2667 6.45L15.8167 6.08333L16.2 5.51667L16.3333 4.83333L16.2 4.15L15.8167 3.6L15.2667 3.23333L14.5833 3.08333L13.9 3.23333L13.35 3.6ZM35.1667 10.1833L35.6333 10.2833L36.1667 10.4833L36.75 10.7833L37.35 11.2333L37.95 11.8167L38.5333 12.6L39.0667 13.5833L39.5333 14.8L39.8833 16.2667L40.1167 18L40.2 20.05L40.1 22.1L39.8333 23.8333L39.4333 25.2667L38.9 26.45L38.3 27.4L37.6333 28.15L36.9333 28.7L36.2333 29.1L35.5667 29.3667L34.9667 29.5167L34.4333 29.6L34.0333 29.6333L33.7667 29.6167H20.0667V30.9833H29.8L29.8167 35.5833L29.85 36.1833L29.7667 36.75L29.5833 37.2667L29.3 37.75L28.8833 38.1667L28.3667 38.5667L27.7333 38.9L27 39.1833L26.15 39.4333L25.1833 39.65L24.1167 39.8L22.9333 39.9167L21.65 39.9833L20.25 40L18.1333 39.9333L16.35 39.7L14.85 39.3667L13.6333 38.95L12.65 38.45L11.9 37.9L11.3333 37.3333L10.9167 36.7667L10.65 36.2167L10.4833 35.7167L10.4167 35.3L10.3833 34.9667L10.4 34.75V25.85L10.4833 24.7833L10.7 23.8833L11.05 23.1167L11.4833 22.4833L11.9833 21.95L12.5333 21.55L13.1167 21.2167L13.7 20.9833L14.25 20.8167L14.75 20.7167L15.1833 20.65L15.5333 20.6167L15.75 20.6H25.4833L26.6333 20.5167L27.6167 20.2833L28.45 19.9333L29.1333 19.4667L29.6833 18.9333L30.1333 18.35L30.4667 17.75L30.7167 17.15L30.8833 16.5667L31 16.0333L31.0667 15.5667L31.1 15.2167V10.1167H34.5833L34.8167 10.1333L35.1667 10.1833ZM24.3833 33.9333L24 34.4833L23.8667 35.1667L24 35.85L24.3833 36.4L24.9333 36.7833L25.6167 36.9167L26.3 36.7833L26.85 36.4L27.2333 35.85L27.3667 35.1667L27.2333 34.4833L26.85 33.9333L26.3 33.55L25.6167 33.4167L24.9333 33.55L24.3833 33.9333Z" fill="#ffffff"/>
</svg>
