<svg width="26" height="40" viewBox="0 0 26 40" fill="none" xmlns="http://www.w3.org/2000/svg">
<path d="M0.171666 11.0133L6.125 0.425L12.0783 11.0133H0.171666ZM6.84167 0L12.79 10.58L18.7433 0H6.84167ZM13.5683 28.9867L19.5217 39.5767L25.48 28.9867H13.5683V28.9867ZM12.555 11.8467H0.171666L6.36333 22.855L12.555 11.8467ZM13.2683 11.43H25.6483L19.46 0.425L13.2683 11.43V11.43ZM18.805 40L12.8567 29.4183L6.90333 40H18.805ZM12.3783 28.57H0L6.18667 39.575L12.3783 28.57V28.57ZM13.0917 28.1533H25.48L19.2833 17.145L13.0917 28.1533Z" fill="#ECECEC"/>
</svg>
