<svg width="40" height="38" viewBox="0 0 40 38" fill="none" xmlns="http://www.w3.org/2000/svg">
<path d="M19.2633 0.00117831C18.2646 0.0151392 17.2698 0.127911 16.2933 0.337845L15.5383 0.587845C14.0283 1.09284 12.7783 1.84618 12.0383 2.83451L11.5367 3.58785L8.145 9.46784C8.855 8.82284 9.76833 8.30451 10.8833 7.97784H10.885L11.9067 7.72118H11.9083C12.8814 7.50666 13.8737 7.39162 14.87 7.37785C19.73 7.28951 24.925 9.29118 28.9083 11.3112C32.77 13.2695 35.3883 15.1778 35.5533 15.2945L40 7.88451C39.8633 7.78451 37.2333 5.86784 33.3483 3.90784C29.36 1.89785 24.1467 -0.0854884 19.265 0.00284495L19.2633 0.00117831ZM14.8733 7.63118C13.8949 7.64478 12.9204 7.75814 11.965 7.96951L10.955 8.22118C8.825 8.84784 7.46333 10.1545 6.905 11.7345C6.34833 13.3145 6.59167 15.1762 7.71667 16.9278C8.26667 17.6445 8.96167 18.2828 9.74333 18.8395L20.5467 15.3545H20.5483C22.2371 14.8547 24.0177 14.747 25.7544 15.0396C27.4912 15.3322 29.1382 16.0173 30.57 17.0428L35.31 15.4378C35.0267 15.2312 32.5383 13.4378 28.7933 11.5378C24.8283 9.52784 19.6617 7.54451 14.8733 7.63118V7.63118ZM23.9317 15.1262C22.8122 15.119 21.6978 15.278 20.625 15.5978L4.9 20.6695L0 29.2445L15.46 24.2578C17.6681 23.5986 20.0227 23.6135 22.2223 24.3006C24.4219 24.9877 26.3664 26.3157 27.8067 28.1145V28.1162C28.965 29.6212 29.29 31.2928 28.9067 32.7962L33.1933 25.0795C34.185 23.3445 33.9433 21.3712 32.69 19.3645C31.6371 18.0513 30.3045 16.9895 28.7894 16.2563C27.2743 15.5231 25.6148 15.1371 23.9317 15.1262V15.1262ZM18.88 24.0278C17.7482 24.0169 16.6212 24.1759 15.5367 24.4995L0.0133333 29.5078C0.305 29.7262 3.38 32.0045 7.825 34.1212C12.4867 36.3412 18.4417 38.2328 23.605 36.9745L24.3617 36.7212H24.365C26.495 36.0945 27.9217 34.7845 28.51 33.2378C29.0983 31.6878 28.855 29.8978 27.6083 28.2745C26.5595 26.9636 25.2321 25.9025 23.7225 25.168C22.2129 24.4335 20.5588 24.0441 18.88 24.0278V24.0278Z" fill="#538CC8"/>
</svg>
