<svg width="40" height="38" viewBox="0 0 40 38" fill="none" xmlns="http://www.w3.org/2000/svg">
<path d="M1.48167 0C1.48167 0 0 0.858334 0 2.56667V11.1083C0 11.1083 0 16.24 4.44333 18.805C5.805 19.5917 6.75 19.6517 7.405 19.3617C8.06167 20.4083 9.005 21.4383 10.3683 22.225C14.8117 24.7917 14.815 19.66 14.815 19.66V11.12C14.815 9.40833 16.295 8.555 16.295 8.555L22.2233 5.13167C22.2233 5.13167 23.7067 4.275 25.185 5.13167C26.6683 5.98667 25.185 6.84333 25.185 6.84333L19.2667 10.265L22.225 11.9733L28.1567 8.54833C28.2433 8.49833 29.6767 7.72333 31.1117 8.55167C32.595 9.40833 31.1117 10.2617 31.1117 10.2617L25.1867 13.685C25.1867 13.685 23.7067 14.5417 23.7067 16.2517V24.7917C23.7067 24.7917 23.7067 26.505 22.225 25.6483C20.7417 24.7933 20.7417 23.0833 20.7417 23.0833L17.7783 21.3717C17.7783 21.3717 17.78 26.505 22.225 29.07C26.67 31.635 26.6683 26.5033 26.6683 26.5033V17.96C26.6683 16.25 28.15 15.3983 28.15 15.3983L35.5583 11.1167C35.5583 11.1167 38.5183 9.40833 34.0767 6.84333C32.7117 6.05333 31.49 5.67 30.4483 5.515C30.175 4.92 29.5067 4.22167 28.1533 3.44833C23.7083 0.91 19.2667 3.42167 19.2667 3.42167L13.34 6.84333C13.34 6.84333 11.8567 7.7 11.8567 9.40833V17.95C11.8567 17.95 11.8567 19.6617 10.3733 18.8067C8.89167 17.95 8.89 16.24 8.89 16.24V7.70167C8.89 7.595 8.895 7.49 8.90667 7.38833C9.06833 5.885 10.3717 5.13333 10.3717 5.13333L7.40833 3.42167L7.40167 3.425C7.315 3.475 5.92833 4.33167 5.92833 5.98667V14.5283C5.92833 14.5283 5.925 16.24 4.44333 15.385C2.96 14.5283 2.96167 12.8183 2.96167 12.8183V4.28C2.96167 2.57 4.44333 1.71333 4.44333 1.71333L1.48167 0.00166674V0ZM17.7817 14.5583V17.98L20.745 19.6883V16.2667L17.7833 14.5583H17.7817ZM31.8517 18.1967C30.7417 18.205 29.6317 18.845 29.6317 21.3783C29.6317 26.4433 34.075 29.0767 34.075 29.0767L35.5567 29.9317C35.5567 29.9317 37.04 30.7883 37.04 32.4983C37.04 34.2083 35.5567 33.3533 35.5567 33.3533L29.6317 29.9317V33.3533L35.5567 36.775C35.5567 36.775 40 39.34 40 34.2083C40 29.08 37.0383 27.3667 37.0383 27.3667L34.075 25.6583C34.075 25.6583 32.595 24.8017 32.595 23.0917C32.595 21.3783 34.075 22.2333 34.075 22.2333L40 25.655V22.2333L34.075 18.8167C34.075 18.8167 32.9633 18.19 31.8517 18.1967V18.1967Z" fill="#F16822"/>
</svg>
