<svg width="32" height="40" viewBox="0 0 32 40" fill="none" xmlns="http://www.w3.org/2000/svg">
<path d="M14.1 0H20.64V30.2767C17.285 30.9133 14.8217 31.1683 12.1467 31.1683C4.16167 31.1683 0 27.5583 0 20.635C0 13.965 4.41667 9.635 11.255 9.635C12.3167 9.635 13.1233 9.71833 14.1 9.97333V0ZM14.1 15.2383C13.3891 14.9982 12.6419 14.8831 11.8917 14.8983C8.57833 14.8983 6.66833 16.9367 6.66833 20.5067C6.66833 23.99 8.495 25.9 11.85 25.9C12.5717 25.9 13.1667 25.8583 14.1 25.73V15.2367V15.2383ZM31.0467 10.1V25.2633C31.0467 30.4867 30.665 32.9933 29.5183 35.1583C28.4567 37.24 27.055 38.5567 24.1667 40L18.0933 37.1117C20.9817 35.7533 22.3833 34.5617 23.275 32.7367C24.21 30.8683 24.5067 28.7017 24.5067 23.0117V10.0983H31.0467V10.1ZM24.5067 0.035H31.0467V6.745H24.5067V0.035Z" fill="#08A86B"/>
</svg>
