<svg width="40" height="24" viewBox="0 0 40 24" fill="none" xmlns="http://www.w3.org/2000/svg">
<path d="M40 22.5857C39.4178 22.8058 38.7752 22.8054 38.1934 22.5843C37.6116 22.3632 37.1307 21.9369 36.8417 21.3857L31.0917 13.434L30.2583 12.3223L23.5867 21.3957C23.315 21.9237 22.8603 22.3348 22.3075 22.552C21.7548 22.7691 21.1418 22.7776 20.5833 22.5757L29.18 11.0423L21.1833 0.624003C21.7583 0.416794 22.3872 0.414047 22.9639 0.616224C23.5407 0.818401 24.0302 1.21315 24.35 1.734L30.31 9.784L36.3033 1.76734C36.5771 1.24865 37.032 0.848649 37.5814 0.643384C38.1308 0.438118 38.7365 0.441897 39.2833 0.654003L36.18 4.77233L31.9767 10.244C31.8599 10.3481 31.7665 10.4757 31.7026 10.6185C31.6386 10.7613 31.6056 10.9159 31.6056 11.0723C31.6056 11.2288 31.6386 11.3834 31.7026 11.5262C31.7665 11.6689 31.8599 11.7965 31.9767 11.9007L39.9833 22.5873L40 22.5857ZM0.00335333 10.899L0.703353 7.44067C2.62669 0.602337 10.4667 -2.24266 15.86 1.99067C19.0183 4.47233 19.8067 7.98567 19.6517 11.9457H1.86002C1.57169 19.0173 6.67502 23.2873 13.2 21.1057C14.2578 20.7249 15.2046 20.0877 15.9556 19.2512C16.7066 18.4146 17.2384 17.4049 17.5033 16.3123C17.8483 15.2023 18.4167 15.0123 19.46 15.3323C19.2862 16.6863 18.8075 17.9832 18.0601 19.1255C17.3127 20.2678 16.316 21.2258 15.145 21.9273C13.2107 22.9854 10.9914 23.4047 8.80439 23.1254C6.61738 22.8462 4.57468 21.8825 2.96835 20.3723C1.38007 18.5846 0.420147 16.3265 0.23502 13.9423C0.23502 13.5507 0.101687 13.184 0.0116867 12.8323C0.00357338 12.1885 -0.000315595 11.5446 1.99938e-05 10.9007L0.00335333 10.899ZM1.88169 10.4223H17.9717C17.8717 5.29567 14.6367 1.659 10.3217 1.62567C5.51835 1.559 2.08169 5.11567 1.87002 10.399L1.88169 10.4223Z" fill="white"/>
</svg>
