<svg width="41" height="40" viewBox="0 0 41 40" fill="none" xmlns="http://www.w3.org/2000/svg">
<path d="M40.5067 19.5054L38.8273 18.4657C38.8134 18.3024 38.7976 18.1392 38.7801 17.9762L40.2233 16.631C40.2945 16.5634 40.3474 16.4789 40.3771 16.3854C40.4068 16.2918 40.4122 16.1923 40.393 16.096C40.3738 15.9998 40.3305 15.91 40.2672 15.835C40.2039 15.76 40.1226 15.7023 40.0309 15.6673L38.1859 14.9771C38.1404 14.8175 38.092 14.6588 38.0409 14.5009L39.1919 12.9026C39.2497 12.8227 39.286 12.7294 39.2974 12.6315C39.3089 12.5337 39.2951 12.4345 39.2573 12.3435C39.2196 12.2525 39.1592 12.1726 39.0819 12.1116C39.0046 12.0505 38.9129 12.0102 38.8157 11.9946L36.8712 11.6788C36.7953 11.5319 36.7171 11.3861 36.6366 11.2417L37.4535 9.44757C37.4947 9.35812 37.5121 9.25956 37.5041 9.16141C37.4961 9.06326 37.463 8.96883 37.4079 8.88722C37.3529 8.80546 37.2781 8.73901 37.1904 8.6941C37.1028 8.64919 37.0051 8.62729 36.9067 8.63047L34.9319 8.69983C34.8305 8.57153 34.7264 8.44546 34.6196 8.3217L35.0736 6.39939C35.096 6.30353 35.0936 6.20354 35.0666 6.10886C35.0396 6.01418 34.989 5.92795 34.9194 5.85832C34.8498 5.78869 34.7635 5.73796 34.6689 5.71092C34.5742 5.68389 34.4742 5.68145 34.3783 5.70383L32.4557 6.15798C32.3302 6.05256 32.2036 5.94847 32.0759 5.84571L32.1451 3.87089C32.1498 3.77208 32.1289 3.67374 32.0844 3.58539C32.0399 3.49705 31.9733 3.42171 31.8911 3.36669C31.8089 3.31166 31.7139 3.27882 31.6152 3.27135C31.5166 3.26388 31.4177 3.28203 31.3282 3.32404L29.5342 4.14265C29.3889 4.06329 29.2438 3.98393 29.0969 3.90807L28.7797 1.96192C28.7632 1.86512 28.7224 1.77409 28.6612 1.69732C28.5999 1.62056 28.5202 1.56058 28.4295 1.523C28.3388 1.48541 28.24 1.47144 28.1424 1.48239C28.0449 1.49334 27.9516 1.52886 27.8715 1.58563L26.2715 2.73684C26.1137 2.68627 25.955 2.63847 25.7955 2.59346L25.1053 0.748518C25.0702 0.656812 25.0125 0.575482 24.9376 0.512129C24.8626 0.448776 24.7727 0.405467 24.6765 0.38625C24.5802 0.367033 24.4806 0.372535 24.3871 0.402242C24.2935 0.431949 24.209 0.484891 24.1414 0.55612L22.7962 2.00093C22.6333 1.98256 22.4701 1.96678 22.3067 1.95358L21.267 0.274027C21.2153 0.190257 21.143 0.121104 21.057 0.0731408C20.9711 0.0251781 20.8743 0 20.7758 0C20.6774 0 20.5806 0.0251781 20.4946 0.0731408C20.4086 0.121104 20.3364 0.190257 20.2847 0.274027L19.245 1.95342C19.0817 1.96745 18.9185 1.98323 18.7555 2.00077L17.4085 0.555954C17.3414 0.483849 17.257 0.430117 17.1633 0.399871C17.0695 0.369624 16.9696 0.363869 16.873 0.383154C16.7764 0.402439 16.6864 0.446122 16.6114 0.510046C16.5365 0.573969 16.4792 0.656007 16.4449 0.748351L15.7545 2.59313C15.5941 2.63881 15.4372 2.68766 15.2785 2.73651L13.6801 1.58563C13.6 1.52886 13.5068 1.49335 13.4092 1.4824C13.3116 1.47146 13.2128 1.48544 13.1221 1.52305C13.0314 1.56066 12.9517 1.62066 12.8905 1.69744C12.8292 1.77422 12.7885 1.86527 12.772 1.96209L12.4547 3.90807C12.3078 3.98394 12.162 4.06214 12.0176 4.14265L10.2233 3.32404C10.1337 3.28303 10.0351 3.26565 9.93682 3.27356C9.83857 3.28148 9.74399 3.31442 9.66209 3.36924C9.58018 3.42407 9.51368 3.49896 9.46892 3.58677C9.42416 3.67458 9.40263 3.7724 9.40638 3.87089L9.47574 5.84571C9.34723 5.94745 9.22061 6.05156 9.09595 6.15798L7.17348 5.70366C7.07761 5.68126 6.97761 5.68368 6.88294 5.71069C6.78827 5.7377 6.70205 5.78841 6.63243 5.85802C6.56282 5.92764 6.51211 6.01385 6.4851 6.10853C6.45809 6.2032 6.45567 6.30319 6.47808 6.39906L6.93039 8.32153C6.82569 8.44658 6.72116 8.57312 6.61979 8.69966L4.64497 8.63047C4.54648 8.62671 4.44866 8.64824 4.36085 8.693C4.27304 8.73776 4.19815 8.80426 4.14332 8.88617C4.0885 8.96808 4.05556 9.06266 4.04764 9.1609C4.03973 9.25915 4.05711 9.35778 4.09812 9.44741L4.91673 11.2415C4.83617 11.3859 4.75797 11.5317 4.68215 11.6786L2.73783 11.9944C2.64105 12.0109 2.55002 12.0517 2.47326 12.1129C2.3965 12.1741 2.33652 12.2538 2.29892 12.3445C2.26131 12.4352 2.24732 12.5339 2.25824 12.6315C2.26916 12.729 2.30465 12.8223 2.36138 12.9024L3.51243 14.5008C3.4623 14.6589 3.41395 14.8175 3.36738 14.9767L1.5226 15.667C1.43088 15.702 1.34953 15.7597 1.28616 15.8347C1.22279 15.9096 1.17946 15.9995 1.16023 16.0957C1.141 16.192 1.14648 16.2916 1.17618 16.3851C1.20587 16.4787 1.25881 16.5632 1.33003 16.6308L2.77318 17.9762C2.75487 18.1391 2.73914 18.3022 2.726 18.4656L1.04661 19.5052C0.962047 19.5563 0.89211 19.6284 0.843566 19.7144C0.795022 19.8005 0.769516 19.8976 0.769516 19.9964C0.769516 20.0952 0.795022 20.1923 0.843566 20.2784C0.89211 20.3644 0.962047 20.4365 1.04661 20.4876L2.726 21.5273C2.73933 21.691 2.75634 21.8547 2.77318 22.0168L1.33003 23.3637C1.25793 23.4308 1.20421 23.5153 1.17397 23.609C1.14374 23.7028 1.138 23.8027 1.1573 23.8993C1.1766 23.9959 1.2203 24.0859 1.28425 24.1609C1.34819 24.2358 1.43024 24.2931 1.5226 24.3274L3.36738 25.0177C3.41289 25.1781 3.46191 25.3369 3.51243 25.4937L2.36138 27.0921C2.30312 27.172 2.26641 27.2655 2.25479 27.3636C2.24317 27.4618 2.25702 27.5613 2.29501 27.6525C2.33301 27.7438 2.39386 27.8237 2.47171 27.8846C2.54957 27.9455 2.64179 27.9853 2.7395 28.0002L4.68381 28.3158C4.75984 28.4626 4.83753 28.6078 4.91856 28.753L4.09995 30.5473C4.05894 30.6369 4.04157 30.7355 4.04948 30.8338C4.05739 30.932 4.09033 31.0266 4.14516 31.1085C4.19998 31.1904 4.27487 31.2569 4.36269 31.3017C4.4505 31.3464 4.54831 31.3679 4.6468 31.3642L6.61979 31.295C6.72283 31.4232 6.82569 31.5498 6.93206 31.6746L6.47974 33.5988C6.4572 33.6946 6.45953 33.7946 6.48652 33.8892C6.51351 33.9839 6.56426 34.0701 6.63395 34.1396C6.70363 34.2091 6.78994 34.2597 6.88466 34.2864C6.97939 34.3132 7.07938 34.3153 7.17514 34.2925L9.09745 33.8402C9.22249 33.9465 9.3492 34.0494 9.47741 34.1508L9.40822 36.1256C9.40381 36.2243 9.42494 36.3224 9.46957 36.4105C9.51419 36.4986 9.58081 36.5737 9.66296 36.6286C9.74511 36.6834 9.84002 36.7161 9.93851 36.7235C10.037 36.7309 10.1357 36.7127 10.2252 36.6708L12.0193 35.8538C12.1643 35.9349 12.3095 36.0124 12.4564 36.0884L12.7737 38.0327C12.7899 38.1297 12.8305 38.2209 12.8916 38.2979C12.9527 38.3749 13.0324 38.4351 13.1232 38.4729C13.2139 38.5107 13.3128 38.5248 13.4105 38.514C13.5082 38.5031 13.6016 38.4676 13.6818 38.4109L15.2802 37.2598C15.438 37.3107 15.5967 37.3591 15.7562 37.4049L16.4464 39.2498C16.4803 39.3425 16.5374 39.4249 16.6124 39.4892C16.6873 39.5534 16.7775 39.5973 16.8743 39.6166C16.9711 39.636 17.0712 39.6301 17.1651 39.5995C17.2589 39.569 17.3433 39.5148 17.4102 39.4422L18.7572 37.9991C18.9192 38.0176 19.0829 38.0329 19.2467 38.0481L20.2863 39.7275C20.3383 39.8109 20.4107 39.8796 20.4966 39.9273C20.5826 39.975 20.6792 40 20.7775 40C20.8758 40 20.9724 39.975 21.0584 39.9273C21.1443 39.8796 21.2167 39.8109 21.2687 39.7275L22.3083 38.0481C22.4721 38.0329 22.6358 38.0176 22.7978 37.9991L24.1431 39.4422C24.2107 39.5134 24.2952 39.5663 24.3887 39.596C24.4823 39.6257 24.5818 39.6312 24.678 39.6119C24.7743 39.5927 24.8641 39.5494 24.9391 39.4861C25.014 39.4228 25.0717 39.3415 25.1068 39.2498L25.7972 37.4049C25.9567 37.3593 26.1154 37.311 26.2732 37.2598L27.8715 38.4109C27.9514 38.4691 28.0449 38.5058 28.143 38.5174C28.2412 38.5291 28.3407 38.5152 28.4319 38.4772C28.5232 38.4392 28.6031 38.3784 28.664 38.3005C28.7249 38.2227 28.7647 38.1305 28.7797 38.0327L29.0969 36.0884C29.2436 36.0124 29.3889 35.9332 29.5341 35.8538L31.3283 36.6708C31.4179 36.7112 31.5162 36.7282 31.6141 36.7202C31.712 36.7121 31.8063 36.6793 31.888 36.6248C31.9697 36.5702 32.0362 36.4958 32.0812 36.4085C32.1262 36.3211 32.1483 36.2238 32.1453 36.1256L32.0761 34.1508C32.2043 34.05 32.3303 33.9464 32.454 33.8402L34.3765 34.2925C34.4722 34.3148 34.572 34.3123 34.6665 34.2854C34.7609 34.2585 34.847 34.208 34.9166 34.1386C34.9861 34.0692 35.0369 33.9833 35.0641 33.8889C35.0912 33.7944 35.0939 33.6947 35.0719 33.5989L34.6196 31.6746C34.7243 31.5498 34.8288 31.4232 34.9302 31.2948L36.905 31.364C37.0038 31.3687 37.1022 31.3478 37.1905 31.3033C37.2789 31.2588 37.3542 31.1922 37.4092 31.11C37.4642 31.0278 37.4971 30.9328 37.5046 30.8342C37.512 30.7355 37.4939 30.6366 37.4519 30.5471L36.6349 28.7532C36.7141 28.6078 36.7935 28.4627 36.8695 28.3158L38.8138 28.0002C38.9106 27.9838 39.0017 27.943 39.0785 27.8818C39.1553 27.8206 39.2153 27.7409 39.2529 27.6501C39.2905 27.5594 39.3045 27.4606 39.2935 27.3631C39.2826 27.2655 39.247 27.1722 39.1903 27.0921L38.0392 25.4937L38.1843 25.0177L40.0292 24.3275C40.1216 24.2933 40.2037 24.2359 40.2676 24.161C40.3316 24.086 40.3753 23.996 40.3946 23.8993C40.4138 23.8027 40.4081 23.7028 40.3778 23.609C40.3475 23.5152 40.2938 23.4308 40.2216 23.3637L38.7785 22.0168C38.7953 21.8547 38.8122 21.691 38.8257 21.5273L40.505 20.4876C40.5896 20.4365 40.6595 20.3644 40.7081 20.2784C40.7566 20.1923 40.7821 20.0952 40.7821 19.9964C40.7821 19.8976 40.7566 19.8005 40.7081 19.7144C40.6595 19.6284 40.5896 19.5563 40.505 19.5052L40.5067 19.5054ZM29.2675 33.4352C28.9603 33.3677 28.6924 33.1814 28.5222 32.917C28.352 32.6525 28.2934 32.3315 28.3592 32.024C28.4249 31.7164 28.6098 31.4475 28.8732 31.2758C29.1367 31.1041 29.4574 31.0437 29.7653 31.1078C29.9203 31.1384 30.0676 31.1996 30.1987 31.2877C30.3298 31.3758 30.442 31.4892 30.5289 31.6211C30.6157 31.7531 30.6755 31.901 30.7046 32.0562C30.7337 32.2115 30.7316 32.371 30.6984 32.5255C30.6653 32.6799 30.6017 32.8262 30.5114 32.9558C30.4212 33.0855 30.306 33.1958 30.1726 33.2805C30.0393 33.3652 29.8904 33.4225 29.7347 33.449C29.579 33.4756 29.4195 33.4709 29.2656 33.4352H29.2675ZM28.697 29.5769C28.5578 29.547 28.414 29.5448 28.2739 29.5705C28.1339 29.5962 28.0003 29.6493 27.8808 29.7267C27.7613 29.8042 27.6582 29.9044 27.5776 30.0218C27.4969 30.1391 27.4402 30.2712 27.4107 30.4105L26.815 33.1923C24.9752 34.0276 22.9329 34.4919 20.7808 34.4919C18.6528 34.495 16.55 34.0317 14.6203 33.1348L14.0244 30.3532C13.9949 30.2139 13.9382 30.0819 13.8575 29.9646C13.7769 29.8474 13.6738 29.7472 13.5543 29.6699C13.4348 29.5926 13.3012 29.5397 13.1611 29.5142C13.0211 29.4886 12.8774 29.4911 12.7383 29.5212L10.2825 30.0478C9.82619 29.5779 9.40213 29.0777 9.01325 28.5506H20.9632C21.0983 28.5506 21.1893 28.5271 21.1893 28.4039V24.1758C21.1893 24.0524 21.0999 24.0289 20.9632 24.0289H17.4677V21.3485H21.2485C21.5928 21.3485 23.0933 21.4464 23.5726 23.3639C23.7228 23.9529 24.0519 25.872 24.2782 26.4864C24.5026 27.175 25.4174 28.5506 26.393 28.5506H32.3477C32.4202 28.5496 32.4925 28.5423 32.5637 28.5287C32.1509 29.0896 31.6985 29.6204 31.2101 30.1169L28.697 29.5769ZM12.1678 33.3779C12.0139 33.4135 11.8545 33.4182 11.6988 33.3917C11.543 33.3651 11.3942 33.3078 11.2608 33.2232C11.1274 33.1385 11.0123 33.0281 10.922 32.8985C10.8317 32.7689 10.7682 32.6225 10.735 32.4681C10.7019 32.3137 10.6998 32.1541 10.7289 31.9989C10.758 31.8436 10.8177 31.6957 10.9046 31.5638C10.9914 31.4318 11.1036 31.3185 11.2347 31.2303C11.3658 31.1422 11.5132 31.081 11.6681 31.0504C11.9745 30.9899 12.2925 31.0522 12.5534 31.2239C12.8143 31.3956 12.9972 31.663 13.0628 31.9684C13.1283 32.2737 13.0712 32.5927 12.9038 32.8563C12.7364 33.12 12.4721 33.3073 12.1678 33.3779ZM7.6343 14.9938C7.70306 15.1373 7.74234 15.2931 7.7498 15.4521C7.75726 15.6111 7.73275 15.7699 7.67772 15.9193C7.6227 16.0686 7.53827 16.2054 7.42945 16.3215C7.32062 16.4377 7.18961 16.5308 7.04415 16.5954C6.8987 16.66 6.74177 16.6947 6.58264 16.6976C6.42352 16.7005 6.26544 16.6714 6.11775 16.6121C5.97007 16.5527 5.83578 16.4644 5.72284 16.3523C5.6099 16.2401 5.52061 16.1065 5.46024 15.9592C5.34316 15.6728 5.34227 15.352 5.45775 15.065C5.57322 14.7779 5.79599 14.5471 6.0788 14.4215C6.36161 14.2959 6.68221 14.2855 6.9726 14.3923C7.263 14.4992 7.50034 14.715 7.6343 14.9939V14.9938ZM6.24183 18.297L8.80052 17.1593C8.93067 17.1015 9.04817 17.0186 9.14627 16.9154C9.24438 16.8122 9.32117 16.6906 9.37227 16.5577C9.42337 16.4248 9.44776 16.2831 9.44406 16.1407C9.44036 15.9983 9.40863 15.8581 9.3507 15.728L8.82419 14.5364H10.8969V23.877H6.71599C6.20043 22.0642 6.03999 20.1689 6.2435 18.2952L6.24183 18.297ZM17.4694 17.3905V14.6376H22.4045C22.6596 14.6376 24.2038 14.9331 24.2038 16.0876C24.2038 17.0463 23.0189 17.3905 22.0451 17.3905H17.4694ZM35.4044 19.8684C35.4044 20.233 35.391 20.5958 35.3638 20.9537H33.8633C33.7133 20.9537 33.6524 21.0514 33.6524 21.2V21.8885C33.6524 23.5107 32.7376 23.8635 31.9359 23.9529C31.1729 24.0391 30.3273 23.634 30.2228 23.1665C29.772 20.6346 29.0227 20.0928 27.8378 19.1595C29.3078 18.226 30.8372 16.8487 30.8372 15.0056C30.8372 13.0156 29.4717 11.7615 28.5416 11.1455C27.237 10.2847 25.7922 10.1126 25.4022 10.1126H9.88588C12.0303 7.71479 14.906 6.09153 18.0669 5.49459L19.8965 7.41357C19.9946 7.5167 20.112 7.59945 20.2421 7.65708C20.3722 7.7147 20.5123 7.74607 20.6546 7.74937C20.7968 7.75267 20.9383 7.72784 21.0709 7.67631C21.2036 7.62477 21.3247 7.54755 21.4274 7.44908L23.4731 5.49126C25.5589 5.88245 27.5347 6.72274 29.2633 7.95383C30.9919 9.18492 32.432 10.7773 33.4837 12.6206L32.0828 15.7853C31.9667 16.0482 31.9594 16.3463 32.0625 16.6145C32.1656 16.8828 32.3707 17.0992 32.6329 17.2167L35.3302 18.4151C35.3773 18.8944 35.401 19.377 35.401 19.8684H35.4044ZM19.8982 3.86422C20.1263 3.64667 20.4314 3.52863 20.7465 3.53607C20.9026 3.53976 21.0563 3.57414 21.1991 3.63725C21.3418 3.70036 21.4707 3.79097 21.5784 3.9039C21.6861 4.01683 21.7706 4.14987 21.8269 4.29543C21.8832 4.44099 21.9103 4.59621 21.9066 4.75223C21.9029 4.90825 21.8685 5.06202 21.8054 5.20476C21.7423 5.3475 21.6517 5.4764 21.5387 5.58412C21.3076 5.78366 21.0086 5.8867 20.7036 5.87192C20.3986 5.85714 20.1109 5.72566 19.9002 5.50471C19.6894 5.28375 19.5717 4.99022 19.5713 4.68486C19.5709 4.3795 19.688 4.08569 19.8982 3.86422V3.86422ZM33.801 15.0513C33.8639 14.9085 33.9544 14.7796 34.0673 14.672C34.1801 14.5643 34.3131 14.48 34.4587 14.4238C34.6042 14.3677 34.7594 14.3408 34.9153 14.3448C35.0712 14.3487 35.2249 14.3834 35.3673 14.4469C35.5827 14.542 35.7651 14.6988 35.8913 14.8975C36.0176 15.0962 36.082 15.328 36.0765 15.5633C36.071 15.7987 35.9958 16.0272 35.8604 16.2198C35.725 16.4124 35.5355 16.5605 35.3159 16.6454C35.0963 16.7303 34.8565 16.7481 34.6267 16.6966C34.397 16.6451 34.1877 16.5266 34.0253 16.3561C33.8629 16.1856 33.7548 15.9708 33.7146 15.7388C33.6743 15.5068 33.7038 15.2681 33.7993 15.0529L33.801 15.0513Z" fill="#EA4800"/>
</svg>
