<svg width="40" height="40" viewBox="0 0 40 40" fill="none" xmlns="http://www.w3.org/2000/svg">
<path d="M0.439606 3.58963e-05C0.372472 0.00109761 0.30644 0.0172807 0.246423 0.0473817C0.186405 0.0774827 0.133945 0.120727 0.0929456 0.173899C0.0519459 0.22707 0.0234608 0.288801 0.00960887 0.354499C-0.00424308 0.420198 -0.00310547 0.488174 0.0129371 0.553373L4.8363 20.0802C4.84014 20.1028 4.84571 20.1251 4.85297 20.1468L9.66967 39.6603C9.68849 39.7366 9.72714 39.8066 9.7817 39.8633C9.83625 39.9199 9.90479 39.9611 9.98038 39.9827C10.056 40.0044 10.1359 40.0057 10.2122 39.9865C10.2884 39.9674 10.3583 39.9284 10.4147 39.8736L39.4765 11.9168C39.5328 11.8623 39.5737 11.7941 39.5952 11.7188C39.6168 11.6435 39.6182 11.564 39.5993 11.488C39.5804 11.412 39.5418 11.3424 39.4875 11.286C39.4332 11.2296 39.3651 11.1885 39.2899 11.1668L29.6498 8.38842C29.5872 8.35272 29.5168 8.33271 29.4448 8.33009L10.4397 2.85839C10.3676 2.81386 10.2844 2.79074 10.1997 2.79172L0.566274 0.0167027C0.525068 0.00510621 0.482409 -0.000506782 0.439606 3.58963e-05V3.58963e-05ZM1.06294 1.09004L9.323 3.46672L3.12296 9.4401L1.06294 1.09004ZM10.823 3.90006L18.9297 6.23341L12.8464 12.0918L10.823 3.90006ZM9.953 4.10006L11.9813 12.3101L3.85296 9.97677L9.953 4.10006ZM20.4197 6.66341L28.5498 9.00343L22.4464 14.8868L20.4197 6.66341ZM19.5531 6.88008L21.5664 15.0468L13.478 12.7268L19.5531 6.88008ZM30.0531 9.43676L38.2982 11.8101L32.1065 17.7668L30.0531 9.43676ZM29.1798 9.63676L31.2048 17.8468L23.0781 15.5168L29.1798 9.63676ZM3.45963 10.7968L11.733 13.1701L5.52297 19.1468L3.45963 10.7968ZM13.218 13.5835L21.3464 15.9168L15.2464 21.7952L13.218 13.5835ZM12.3547 13.8118L14.4147 22.1735L6.14298 19.7868L12.3547 13.8118ZM22.8114 16.3701L31.0865 18.7452L24.8698 24.7219L22.8114 16.3701ZM21.9447 16.5818L24.0031 24.9352L15.7397 22.5518L21.9447 16.5818ZM5.89464 20.6452L14.0164 22.9885L7.92299 28.8602L5.89464 20.6452ZM15.6514 23.4569L23.7564 25.7952L17.6764 31.6452L15.6514 23.4569ZM14.7514 23.5235L16.7747 31.7352L8.64966 29.4019L14.7514 23.5235ZM8.25799 30.2236L16.653 32.6269L10.3497 38.6903L8.25799 30.2236Z" fill="white"/>
</svg>
