<svg width="41" height="40" viewBox="0 0 41 40" fill="none" xmlns="http://www.w3.org/2000/svg">
<path d="M2.44452 0C1.40619 0 0.569519 0.836667 0.569519 1.875V38.125C0.569519 39.1633 1.40619 40 2.44452 40H38.6945C39.7329 40 40.5695 39.1633 40.5695 38.125V1.875C40.5695 0.836667 39.7329 0 38.6945 0H2.44452ZM31.3829 16.25C32.4029 16.25 33.3062 16.3117 34.0945 16.435C34.8381 16.5464 35.5677 16.7364 36.2712 17.0017V21.0983C35.9335 20.8648 35.5747 20.6634 35.1995 20.4967C34.8126 20.3226 34.4131 20.1777 34.0045 20.0633C33.2305 19.8477 32.4313 19.7356 31.6279 19.73C31.1279 19.73 30.6729 19.7767 30.2629 19.8733C29.8974 19.9515 29.5469 20.0877 29.2245 20.2767C28.9412 20.45 28.7245 20.6583 28.5695 20.9C28.4136 21.1436 28.3325 21.4275 28.3362 21.7167C28.3362 22.0433 28.4245 22.3383 28.5962 22.5983C28.7695 22.8583 29.0162 23.105 29.3345 23.3383C29.6529 23.5717 30.0395 23.7983 30.4945 24.0217C30.9495 24.2467 31.4645 24.4783 32.0379 24.715C32.8212 25.0433 33.5245 25.3933 34.1479 25.7617C34.7712 26.1317 35.3062 26.55 35.7529 27.0167C36.1995 27.4817 36.5395 28.0133 36.7762 28.6117C37.0129 29.21 37.1329 29.905 37.1329 30.7C37.1329 31.795 36.9245 32.7167 36.5112 33.46C36.1073 34.1931 35.5278 34.8145 34.8245 35.2683C34.0665 35.749 33.2263 36.0857 32.3462 36.2617C31.4029 36.4617 30.4079 36.5617 29.3629 36.5617C28.3343 36.5662 27.3077 36.4747 26.2962 36.2883C25.4211 36.137 24.5723 35.8602 23.7762 35.4667V31.0833C25.2825 32.3652 27.1933 33.0736 29.1712 33.0833C29.7262 33.0833 30.2112 33.0333 30.6245 32.9333C31.0395 32.8333 31.3845 32.6933 31.6629 32.5167C31.9395 32.3367 32.1462 32.1267 32.2845 31.8833C32.4374 31.6 32.507 31.2792 32.4851 30.958C32.4633 30.6368 32.351 30.3284 32.1612 30.0683C31.9136 29.7406 31.6107 29.4586 31.2662 29.235C30.8389 28.9518 30.3891 28.7043 29.9212 28.495C29.3666 28.2417 28.807 27.9995 28.2429 27.7683C26.7129 27.13 25.5729 26.3483 24.8212 25.4267C24.0712 24.505 23.6945 23.39 23.6945 22.085C23.6945 21.0617 23.8995 20.1833 24.3095 19.4483C24.7195 18.7133 25.2762 18.1083 25.9829 17.6333C26.7303 17.1402 27.5601 16.7852 28.4329 16.585C29.3995 16.3571 30.3897 16.2446 31.3829 16.25V16.25ZM6.19452 16.5633H22.1329V20.1733H16.4129V36.25H11.8845V20.1733H6.19452V16.5633Z" fill="#3786DE"/>
</svg>
