<svg width="30" height="25" viewBox="0 0 30 25" fill="none" xmlns="http://www.w3.org/2000/svg">
<path d="M29.9412 2.90438C28.8181 3.39889 27.6283 3.72531 26.41 3.87313C27.6926 3.10219 28.653 1.89319 29.1138 0.469381C27.925 1.16313 26.6075 1.66813 25.205 1.94938C24.2797 0.959918 23.0536 0.303658 21.7171 0.0825082C20.3805 -0.138642 19.0084 0.0876945 17.8137 0.72637C16.619 1.36505 15.6686 2.38032 15.1101 3.61454C14.5516 4.84875 14.4162 6.23284 14.725 7.55188C9.6125 7.31063 5.08375 4.85438 2.05 1.14438C1.49849 2.08165 1.21083 3.15066 1.2175 4.23813C1.2175 6.37563 2.305 8.25438 3.9525 9.35813C2.97607 9.32705 2.02121 9.06305 1.1675 8.58813V8.66313C1.16695 10.0836 1.65784 11.4606 2.55688 12.5603C3.45593 13.6601 4.70777 14.415 6.1 14.6969C5.19787 14.9386 4.25302 14.9749 3.335 14.8031C3.73015 16.0256 4.49708 17.0943 5.52877 17.86C6.56046 18.6257 7.80544 19.0502 9.09 19.0744C6.91441 20.7818 4.2281 21.7085 1.4625 21.7056C0.975 21.7056 0.48875 21.6769 0 21.6219C2.81964 23.4273 6.09814 24.3856 9.44625 24.3831C20.7625 24.3831 26.9438 15.0131 26.9438 6.90188C26.9438 6.63938 26.9438 6.37688 26.925 6.11438C28.1325 5.24546 29.174 4.16666 30 2.92938L29.9412 2.90438Z" fill="white"/>
</svg>
