<svg width="30" height="30" viewBox="0 0 30 30" fill="none" xmlns="http://www.w3.org/2000/svg">
<path d="M15 0C23.2875 0 30 6.88677 30 15.3808C30 22.1779 25.7025 27.9419 19.7438 29.9734C18.9938 30.1183 18.7188 29.6427 18.7188 29.2339C18.7188 28.8686 18.7312 27.9009 18.7375 26.6191C22.91 27.5471 23.79 24.5555 23.79 24.5555C24.4725 22.7803 25.4588 22.3061 25.4588 22.3061C26.8175 21.3525 25.3537 21.3717 25.3537 21.3717C23.8475 21.4794 23.0563 22.9559 23.0563 22.9559C21.7188 25.3079 19.545 24.6286 18.6875 24.2351C18.5525 23.2405 18.1662 22.5624 17.7375 22.1779C21.0687 21.7934 24.57 20.4706 24.57 14.5772C24.57 12.8981 23.9887 11.5267 23.0263 10.45C23.195 10.0616 23.7012 8.49792 22.895 6.37921C22.895 6.37921 21.6387 5.96649 18.77 7.95574C17.57 7.61352 16.295 7.44433 15.02 7.43664C13.745 7.44433 12.47 7.61352 11.27 7.95574C8.42 5.96649 7.16375 6.37921 7.16375 6.37921C6.3575 8.49792 6.86375 10.0616 7.01375 10.45C6.0575 11.5267 5.47625 12.8981 5.47625 14.5772C5.47625 20.486 8.9825 21.787 12.32 22.1651C11.795 22.6265 11.3075 23.5699 11.3075 25.0105C11.3075 27.069 11.3262 28.7224 11.3262 29.2223C11.3262 29.6261 11.0638 30.1067 10.295 29.9529C4.29375 27.9355 0 22.1676 0 15.3808C0 6.88677 6.71625 0 15 0" fill="white"/>
</svg>
